<svg width="437" height="127" viewBox="0 0 437 127" fill="none" xmlns="http://www.w3.org/2000/svg">
<path d="M206.977 73.0267C214.876 53.5616 189.893 54.0117 173.525 66.0749C157.158 78.1381 157.271 90.1746 168.466 90.1746C186.258 90.1746 211.933 79.9055 202.332 96.6629C192.73 113.42 176.684 120.405 162.375 121.226C148.065 122.047 145.944 112.529 152.517 99.7825" stroke="black" stroke-width="9.23714" stroke-linecap="round"/>
<path d="M95.8262 38.1874C111.887 27.4366 114.3 5 89.1803 5C59.2737 5 5.00042 35.8503 5 86.8C4.9996 134.621 55.9376 118.729 70.3358 111.25C84.7339 103.772 95.8262 89.2296 95.8262 78.7697C95.8262 63.0102 78.0875 59.5015 61.4767 68.8603C44.8659 78.2192 47.0007 92.0322 64.2451 89.2296C79.1948 86.8 111.863 65.5572 124.044 57.2994" stroke="black" stroke-width="9.23283" stroke-linecap="round"/>
<path d="M222.705 90.9012C241.91 56.7167 284.448 53.2671 281.789 70.5152C279.13 87.7633 253.983 97.7725 222.705 90.9012ZM222.705 90.9012C211.252 111.287 219.96 136.488 266.675 109.754" stroke="black" stroke-width="9.23714" stroke-linecap="round"/>
<path d="M372.202 90.9012C391.407 56.7167 433.945 53.2671 431.286 70.5152C428.627 87.7633 403.48 97.7725 372.202 90.9012ZM372.202 90.9012C360.749 111.287 369.457 136.488 416.172 109.754" stroke="black" stroke-width="9.23714" stroke-linecap="round"/>
<path d="M141.14 63.2708L117.123 121.841M161.461 14.6897L158.228 22.4082" stroke="black" stroke-width="9.23714" stroke-linecap="round"/>
<path d="M325.072 5C306.347 53.0858 267.448 142.725 312.387 116.595" stroke="black" stroke-width="9.24" stroke-linecap="round"/>
<path d="M367.983 5C349.258 53.0858 310.359 142.725 355.299 116.595" stroke="black" stroke-width="9.24" stroke-linecap="round"/>
</svg>
