<svg width="41" height="41" viewBox="0 0 41 41" fill="none" xmlns="http://www.w3.org/2000/svg">
<path fill-rule="evenodd" clip-rule="evenodd" d="M23.5195 11.093L23.4795 0.333008H17.4795L17.5195 11.093L20.5195 15.213L23.5195 11.093ZM17.5195 29.533V40.333H23.5195V29.533L20.5195 25.413L17.5195 29.533Z" fill="black"/>
<path fill-rule="evenodd" clip-rule="evenodd" d="M23.5193 29.5331L29.8393 38.253L34.6793 34.7331L28.3593 26.013L23.5193 24.453V29.5331ZM17.5193 11.093L11.1593 2.37305L6.31934 5.89305L12.6393 14.613L17.5193 16.173V11.093Z" fill="#00F2E6"/>
<path fill-rule="evenodd" clip-rule="evenodd" d="M12.6396 14.613L2.39957 11.293L0.55957 16.973L10.7996 20.333L15.6396 18.733L12.6396 14.613ZM25.3596 21.893L28.3596 26.013L38.5996 29.333L40.4396 23.653L30.1996 20.333L25.3596 21.893Z" fill="#00B9F1"/>
<path fill-rule="evenodd" clip-rule="evenodd" d="M30.1996 20.333L40.4396 16.973L38.5996 11.293L28.3596 14.613L25.3596 18.733L30.1996 20.333ZM10.7996 20.333L0.55957 23.653L2.39957 29.333L12.6396 26.013L15.6396 21.893L10.7996 20.333Z" fill="#D63AFF"/>
<path fill-rule="evenodd" clip-rule="evenodd" d="M12.6393 26.013L6.31934 34.7331L11.1593 38.253L17.5193 29.5331V24.453L12.6393 26.013ZM28.3593 14.613L34.6793 5.89305L29.8393 2.37305L23.5193 11.093V16.173L28.3593 14.613Z" fill="#FB015B"/>
</svg>
