<svg width="1208" height="1125" viewBox="0 0 1208 1125" fill="none" xmlns="http://www.w3.org/2000/svg">
<ellipse cx="614" cy="218" rx="224" ry="218" fill="black"/>
<ellipse cx="911" cy="341.5" rx="163" ry="158.5" fill="black"/>
<ellipse cx="1023" cy="586.5" rx="185" ry="188.5" fill="black"/>
<ellipse cx="940.5" cy="833" rx="190.5" ry="201" fill="black"/>
<ellipse cx="509.5" cy="924" rx="190.5" ry="201" fill="black"/>
<ellipse cx="322.5" cy="341.5" rx="215.5" ry="219.5" fill="black"/>
<ellipse cx="215.5" cy="673.5" rx="215.5" ry="219.5" fill="black"/>
<ellipse cx="319" cy="923.5" rx="187" ry="190.5" fill="black"/>
<ellipse cx="750" cy="965.5" rx="146" ry="148.5" fill="black"/>
<path d="M941.865 823.193C975.524 721.526 874.893 673.825 812.405 708.986L784.092 882.709C802.139 933.909 908.206 924.861 941.865 823.193Z" fill="white" stroke="black" stroke-width="6" stroke-linecap="round" stroke-linejoin="round"/>
<path d="M270.515 825.099C234.475 724.251 333.957 674.197 397.254 707.879L429.645 880.888C412.806 932.499 306.556 925.948 270.515 825.099Z" fill="white" stroke="black" stroke-width="6" stroke-linecap="round" stroke-linejoin="round"/>
<path d="M823.5 833C826.311 825.37 833.153 810.484 842.117 796.5M890 767C873.543 756.827 855.475 775.661 842.117 796.5M842.117 796.5C854.411 792.667 880.1 789 884.5 805" stroke="black" stroke-width="6" stroke-linecap="round" stroke-linejoin="round"/>
<path d="M384.5 833C381.689 825.37 374.847 810.484 365.883 796.5M318 767C334.457 756.827 352.525 775.661 365.883 796.5M365.883 796.5C353.589 792.667 327.9 789 323.5 805" stroke="black" stroke-width="6" stroke-linecap="round" stroke-linejoin="round"/>
<path d="M654 956H578V1041H654V956Z" fill="white" stroke="black" stroke-width="6" stroke-linecap="round" stroke-linejoin="round"/>
<path d="M654 956H578V990C578 990 592 998 616.5 998C641 998 654 990 654 990V956Z" fill="black" stroke="black" stroke-width="6" stroke-linecap="round" stroke-linejoin="round"/>
<path d="M409.483 445.24C413.246 436.826 421.259 429.096 432.968 422.228C444.643 415.38 459.724 409.546 477.186 404.802C512.103 395.316 556.113 390.298 600.37 390.013C644.627 389.728 688.947 394.177 724.483 403.521C742.253 408.193 757.726 414.063 769.87 421.108C782.038 428.167 790.643 436.276 795.035 445.325C799.602 454.734 803.413 468.622 806.408 486.003C809.395 503.336 811.542 523.957 812.863 546.718C815.505 592.239 814.836 646.162 811.052 699.166C807.268 752.178 800.374 804.176 790.597 845.864C785.707 866.712 780.115 884.903 773.866 899.325C767.583 913.826 760.781 924.172 753.658 929.713C738.679 941.364 716.761 950.389 691.087 956.527C665.457 962.654 636.298 965.853 607.016 965.995C577.733 966.137 548.407 963.222 522.442 957.167C496.438 951.102 474.009 941.936 458.345 929.715C450.861 923.876 443.762 913.223 437.219 898.457C430.707 883.763 424.881 865.312 419.772 844.233C409.556 802.08 402.281 749.725 398.043 696.566C393.807 643.416 392.613 589.556 394.532 544.418C395.491 521.848 397.226 501.496 399.738 484.524C402.258 467.498 405.533 454.074 409.483 445.24Z" fill="white" stroke="black" stroke-width="6"/>
<ellipse cx="500" cy="678" rx="28" ry="63" fill="black"/>
<mask id="path-18-outside-1_151_328" maskUnits="userSpaceOnUse" x="462" y="609" width="76" height="62" fill="black">
<rect fill="white" x="462" y="609" width="76" height="62"/>
<path d="M532 665C532 651.739 528.629 639.021 522.627 629.645C516.626 620.268 508.487 615 500 615C491.513 615 483.374 620.268 477.373 629.645C471.371 639.021 468 651.739 468 665L500 665H532Z"/>
</mask>
<path d="M532 665C532 651.739 528.629 639.021 522.627 629.645C516.626 620.268 508.487 615 500 615C491.513 615 483.374 620.268 477.373 629.645C471.371 639.021 468 651.739 468 665L500 665H532Z" fill="white"/>
<path d="M532 665C532 651.739 528.629 639.021 522.627 629.645C516.626 620.268 508.487 615 500 615C491.513 615 483.374 620.268 477.373 629.645C471.371 639.021 468 651.739 468 665L500 665H532Z" stroke="black" stroke-width="12" stroke-linejoin="round" mask="url(#path-18-outside-1_151_328)"/>
<path d="M528 669H463.557C420.775 669 376.369 663.5 352 636" stroke="black" stroke-width="6" stroke-linecap="round" stroke-linejoin="round"/>
<ellipse cx="710" cy="678" rx="28" ry="63" fill="black"/>
<mask id="path-21-outside-2_151_328" maskUnits="userSpaceOnUse" x="672" y="609" width="76" height="62" fill="black">
<rect fill="white" x="672" y="609" width="76" height="62"/>
<path d="M678 665C678 651.739 681.371 639.021 687.373 629.645C693.374 620.268 701.513 615 710 615C718.487 615 726.626 620.268 732.627 629.645C738.629 639.021 742 651.739 742 665L710 665H678Z"/>
</mask>
<path d="M678 665C678 651.739 681.371 639.021 687.373 629.645C693.374 620.268 701.513 615 710 615C718.487 615 726.626 620.268 732.627 629.645C738.629 639.021 742 651.739 742 665L710 665H678Z" fill="white"/>
<path d="M678 665C678 651.739 681.371 639.021 687.373 629.645C693.374 620.268 701.513 615 710 615C718.487 615 726.626 620.268 732.627 629.645C738.629 639.021 742 651.739 742 665L710 665H678Z" stroke="black" stroke-width="12" stroke-linejoin="round" mask="url(#path-21-outside-2_151_328)"/>
<path d="M682 669H753.766C801.409 669 850.862 663.5 878 636" stroke="black" stroke-width="6" stroke-linecap="round" stroke-linejoin="round"/>
<path d="M621.818 774.257C616.924 777.251 611.305 778.851 605.568 778.886C599.83 778.921 594.192 777.389 589.262 774.455C584.331 771.522 580.295 767.297 577.589 762.238C574.883 757.179 573.609 751.477 573.906 745.747C574.202 740.018 576.057 734.477 579.271 729.725C582.485 724.972 586.935 721.186 592.142 718.777C597.349 716.367 603.115 715.425 608.818 716.052C614.521 716.679 619.945 718.851 624.504 722.334" stroke="black" stroke-width="6"/>
<path d="M536 840.038C567.5 879.044 647.5 881.019 682 840.038" stroke="black" stroke-width="6" stroke-linecap="round" stroke-linejoin="round"/>
<path d="M609 833.038C585.8 832.238 558 844.371 547 850.538C554.5 857.538 577.4 871.338 609 870.538C640.6 869.738 663.5 856.871 671 850.538C660 845.038 632.2 833.838 609 833.038Z" fill="black" stroke="black" stroke-width="6" stroke-linecap="round" stroke-linejoin="round"/>
<path d="M464 591C487.684 557.257 525.011 569.393 536 591" stroke="black" stroke-width="6" stroke-linecap="round" stroke-linejoin="round"/>
<path d="M674 591C697.684 557.257 735.011 569.393 746 591" stroke="black" stroke-width="6" stroke-linecap="round" stroke-linejoin="round"/>
<ellipse cx="676" cy="380" rx="148" ry="121" fill="black"/>
<ellipse cx="831.5" cy="460" rx="101.5" ry="121" fill="black"/>
<ellipse cx="822.5" cy="591" rx="55.5" ry="98" fill="black"/>
<ellipse cx="464.5" cy="402.5" rx="129.5" ry="143.5" fill="black"/>
<ellipse cx="335.5" cy="557" rx="89.5" ry="112" fill="black"/>
</svg>
